# Blender v2.78 (sub 0) OBJ File: ''
# www.blender.org
mtllib rampa.mtl
o Cube
v 1.000000 0.000000 -3.000000
v 1.000000 0.000000 2.000000
v -1.000000 0.000000 2.000000
v -1.000000 0.000000 -3.000000
v 0.999999 2.000000 2.000000
v -1.000000 2.000000 2.000000
vn 0.0000 -1.0000 0.0000
vn 1.0000 0.0000 0.0000
vn -0.0000 -0.0000 1.0000
vn -1.0000 -0.0000 -0.0000
vn 0.0000 0.9285 -0.3714
usemtl Material
s off
f 1//1 2//1 3//1 4//1
f 1//2 5//2 2//2
f 2//3 5//3 6//3 3//3
f 3//4 6//4 4//4
f 1//5 4//5 6//5 5//5
